<svg width="32" height="32" viewBox="0 0 32 32" fill="none" xmlns="http://www.w3.org/2000/svg">
<path d="M0 16C0 7.16344 7.16344 0 16 0C24.8366 0 32 7.16344 32 16C32 24.8366 24.8366 32 16 32C7.16344 32 0 24.8366 0 16Z" fill="white"/>
<path fill-rule="evenodd" clip-rule="evenodd" d="M23.263 15.9993C23.263 15.4497 23.2137 14.9213 23.1221 14.4141H15.8232V17.4119H19.994C19.8144 18.3806 19.2684 19.2014 18.4476 19.751V21.6955H20.9522C22.4176 20.3463 23.263 18.3595 23.263 15.9993Z" fill="#4285F4"/>
<path fill-rule="evenodd" clip-rule="evenodd" d="M15.8229 23.5743C17.9154 23.5743 19.6696 22.8804 20.9519 21.6967L18.4473 19.7522C17.7533 20.2172 16.8656 20.492 15.8229 20.492C13.8045 20.492 12.096 19.1287 11.4866 17.2969H8.89746V19.3048C10.1727 21.8376 12.7935 23.5743 15.8229 23.5743Z" fill="#34A853"/>
<path fill-rule="evenodd" clip-rule="evenodd" d="M11.4867 17.2967C11.3317 16.8317 11.2436 16.335 11.2436 15.8242C11.2436 15.3134 11.3317 14.8167 11.4867 14.3517V12.3438H8.89754C8.37267 13.39 8.07324 14.5736 8.07324 15.8242C8.07324 17.0747 8.37267 18.2584 8.89754 19.3046L11.4867 17.2967Z" fill="#FBBC05"/>
<path fill-rule="evenodd" clip-rule="evenodd" d="M15.8229 11.1566C16.9607 11.1566 17.9823 11.5476 18.7855 12.3156L21.0082 10.0927C19.6661 8.84217 17.9119 8.07422 15.8229 8.07422C12.7935 8.07422 10.1727 9.81091 8.89746 12.3437L11.4866 14.3517C12.096 12.5199 13.8045 11.1566 15.8229 11.1566Z" fill="#EA4335"/>
<path d="M16 31.3542C7.52013 31.3542 0.645833 24.4799 0.645833 16H-0.645833C-0.645833 25.1932 6.80676 32.6458 16 32.6458V31.3542ZM31.3542 16C31.3542 24.4799 24.4799 31.3542 16 31.3542V32.6458C25.1932 32.6458 32.6458 25.1932 32.6458 16H31.3542ZM16 0.645833C24.4799 0.645833 31.3542 7.52013 31.3542 16H32.6458C32.6458 6.80676 25.1932 -0.645833 16 -0.645833V0.645833ZM16 -0.645833C6.80676 -0.645833 -0.645833 6.80676 -0.645833 16H0.645833C0.645833 7.52013 7.52013 0.645833 16 0.645833V-0.645833Z" fill="#F3F3F4"/>
</svg>
