<svg width="32" height="32" viewBox="0 0 32 32" fill="none" xmlns="http://www.w3.org/2000/svg">
<path d="M0 16C0 7.16344 7.16344 0 16 0V0C24.8366 0 32 7.16344 32 16V16C32 24.8366 24.8366 32 16 32V32C7.16344 32 0 24.8366 0 16V16Z" fill="white"/>
<path d="M16 31.3542C7.52013 31.3542 0.645833 24.4799 0.645833 16H-0.645833C-0.645833 25.1932 6.80676 32.6458 16 32.6458V31.3542ZM31.3542 16C31.3542 24.4799 24.4799 31.3542 16 31.3542V32.6458C25.1932 32.6458 32.6458 25.1932 32.6458 16H31.3542ZM16 0.645833C24.4799 0.645833 31.3542 7.52013 31.3542 16H32.6458C32.6458 6.80676 25.1932 -0.645833 16 -0.645833V0.645833ZM16 -0.645833C6.80676 -0.645833 -0.645833 6.80676 -0.645833 16H0.645833C0.645833 7.52013 7.52013 0.645833 16 0.645833V-0.645833Z" fill="#F3F3F4"/>
<path d="M25.2 9.8944C24.4831 10.2207 23.7203 10.4349 22.9384 10.5296C23.7664 10.0185 24.3816 9.2252 24.6704 8.296C23.8993 8.76527 23.0522 9.09637 22.1672 9.2744C21.8034 8.87339 21.3597 8.55286 20.8647 8.3334C20.3697 8.11393 19.8343 8.00037 19.2928 8C17.1184 8 15.3552 9.808 15.3552 12.0392C15.3552 12.356 15.3888 12.6632 15.456 12.9592C12.1824 12.7904 9.28 11.1832 7.336 8.7376C6.98546 9.35738 6.80187 10.0576 6.8032 10.7696C6.8032 12.1704 7.4992 13.4072 8.5552 14.132C7.92847 14.1111 7.31621 13.9382 6.7712 13.628V13.6776C6.7712 15.6352 8.1288 17.268 9.9312 17.6376C9.59394 17.7332 9.24495 17.7811 8.8944 17.78C8.6408 17.78 8.3928 17.756 8.1528 17.708C8.6536 19.3128 10.108 20.4808 11.832 20.512C11.0217 21.1677 10.0879 21.6537 9.08602 21.9414C8.08416 22.229 7.0347 22.3123 6 22.1864C7.79192 23.3689 9.89148 23.9995 12.0384 24C19.2848 24 23.2464 17.8464 23.2464 12.508C23.2464 12.332 23.2424 12.1568 23.236 11.9848C24.0056 11.4152 24.6736 10.7048 25.2 9.8944Z" fill="#55ACEE"/>
</svg>
